<?xml version="1.0" standalone="no"?><!DOCTYPE svg PUBLIC "-//W3C//DTD SVG 1.1//EN" "http://www.w3.org/Graphics/SVG/1.1/DTD/svg11.dtd"><svg t="1535765349864" class="icon" style="" viewBox="0 0 1024 1024" version="1.1" xmlns="http://www.w3.org/2000/svg" p-id="1993" xmlns:xlink="http://www.w3.org/1999/xlink" width="32" height="32"><defs><style type="text/css"></style></defs><path d="M495.9 455.9c-78.7 6.1-142.5 56.6-142.5 112.8 0 56.3 63.8 96.9 142.5 90.9 78.7-6.1 142.5-56.6 142.5-112.8 0-56.3-63.8-97-142.5-90.9z m-11.4 180.7c-47.2 5.7-85.5-22.5-85.5-62.9s38.3-77.8 85.5-83.5S570 512.6 570 553c0 40.5-38.3 77.9-85.5 83.6z" p-id="1994" fill="#8a8a8a"></path><path d="M513 113c-220.4 0-399 178.6-399 399s178.6 399 399 399 399-178.6 399-399-178.6-399-399-399z m217.3 473.4c-36 76.6-154.7 113.9-242.7 106.9-83.6-6.5-191-34.3-202.1-135.6 0 0-5.9-45.9 38.5-105.3 0 0 63.9-89.4 138.3-114.9 74.5-25.4 83.2 17.6 83.2 43-4 21.5-11.4 34.2 16.6 25.5 0 0 73.2-34 103.3-3.8 24.3 24.4 4 57.9 4 57.9s-10.1 11.2 10.7 15.2c20.8 4.1 86.2 34.4 50.2 111.1z" p-id="1995" fill="#8a8a8a"></path></svg>