<?xml version="1.0" standalone="no"?><!DOCTYPE svg PUBLIC "-//W3C//DTD SVG 1.1//EN" "http://www.w3.org/Graphics/SVG/1.1/DTD/svg11.dtd"><svg t="1535614464969" class="icon" style="" viewBox="0 0 1024 1024" version="1.1" xmlns="http://www.w3.org/2000/svg" p-id="4378" xmlns:xlink="http://www.w3.org/1999/xlink" width="32" height="32"><defs><style type="text/css"></style></defs><path d="M512.197 255.693c66.87 0 121.255 54.384 121.255 121.235 0 66.87-54.385 121.275-121.254 121.275-66.852 0-121.235-54.404-121.235-121.275 0-66.85 54.383-121.235 121.234-121.235M226.255 745.39c-2.895 18.208 9.57 35.328 27.76 38.199 18.319 2.895 35.327-9.57 38.198-27.759C309.53 646.24 402.583 566.7 513.486 566.7c110.904 0 203.975 79.54 221.275 189.13 2.582 16.433 16.782 28.159 32.944 28.159 1.738 0 3.47-0.111 5.253-0.4 18.19-2.871 30.654-19.99 27.76-38.199-16.05-101.645-82.452-183.138-171.52-221.498 43.233-34.478 71.036-87.48 71.036-146.962 0-103.673-84.347-188.018-188.038-188.018-103.672 0-188.017 84.345-188.017 188.018 0 59.882 28.227 113.193 71.947 147.656-88.24 38.64-153.91 119.783-169.87 220.804zM511.998 0c282.338 0 512.001 229.662 512.001 512.003 0 104.892-31.61 205.819-91.427 291.884-10.526 15.156-31.317 18.897-46.479 8.345-15.137-10.508-18.877-31.32-8.35-46.48 52.003-74.794 79.473-162.549 79.473-253.749 0-245.495-199.726-445.22-445.22-445.22S66.783 266.509 66.783 512.004c0 245.492 199.721 445.213 445.214 445.213 91.207 0 178.954-27.47 253.754-79.472 15.205-10.551 35.997-6.811 46.481 8.35 10.528 15.136 6.788 35.954-8.35 46.481C717.822 992.39 616.894 1024 511.997 1024 229.663 1023.997 0.001 794.335 0.001 512.003 0 229.663 229.663 0 511.998 0z m0.005 0" fill="#707070" p-id="4379"></path></svg>