<?xml version="1.0" standalone="no"?><!DOCTYPE svg PUBLIC "-//W3C//DTD SVG 1.1//EN" "http://www.w3.org/Graphics/SVG/1.1/DTD/svg11.dtd"><svg t="1535714168893" class="icon" style="" viewBox="0 0 1024 1024" version="1.1" xmlns="http://www.w3.org/2000/svg" p-id="4796" xmlns:xlink="http://www.w3.org/1999/xlink" width="32" height="32"><defs><style type="text/css"></style></defs><path d="M940.96 208.124c-15.916-15.877-37.853-25.73-61.985-25.73l-164.938 0.002c-5.466-46.63-26.685-88.433-58.199-119.944-36.814-36.815-87.67-59.593-143.837-59.593-56.162 0-107.019 22.775-143.835 59.593-31.513 31.512-52.729 73.313-58.195 119.942L145.029 182.394l0 0 0 0.002c-24.174 0-46.108 9.852-61.987 25.729-15.916 15.914-25.763 37.854-25.763 62.026l-0.005 666.096c0 24.173 9.853 46.111 25.768 62.027C98.917 1014.147 120.86 1024 145.029 1024l733.943 0c24.132 0 46.071-9.853 61.987-25.727 15.876-15.916 25.768-37.854 25.768-62.027L966.727 270.15C966.727 245.978 956.838 224.038 940.96 208.124zM838.017 505.057 838.017 505.057c19.465 5.742 3.431 44.234-19.705 39.77C801.878 541.673 805.667 495.442 838.017 505.057zM804.99 471.031 804.99 471.031c24.729 7.338 4.35 56.202-25.048 50.539C759.077 517.582 763.865 458.825 804.99 471.031zM716.796 513.513c-27.166-5.226-17.708-85.083 35.778-69.206l0 0C784.764 453.88 755.05 520.892 716.796 513.513zM401.99 96.275C430.149 68.154 469.044 50.723 512 50.723c42.96 0 81.853 17.432 110.017 45.553l0 0-0.004 0c28.12 28.161 45.558 67.052 45.553 110.012 0 42.959-17.433 81.85-45.553 110.012C593.851 344.46 554.961 361.852 512 361.852c-42.96 0-81.85-17.392-110.012-45.553s-45.553-67.052-45.553-110.012C356.436 163.329 373.829 124.437 401.99 96.275zM283.489 444.307l-0.002 0c53.49-15.877 62.946 63.979 35.778 69.206C281.012 520.892 251.3 453.88 283.489 444.307zM231.075 471.031l-0.002 0c41.124-12.206 45.914 46.551 25.05 50.539C226.724 527.232 206.345 478.369 231.075 471.031zM198.048 505.057 198.048 505.057c32.347-9.613 36.137 36.616 19.702 39.77C194.615 549.291 178.58 510.799 198.048 505.057zM169.446 603.104c-17.23 3.311-29.196-25.372-14.679-29.683C178.898 566.243 181.691 600.749 169.446 603.104zM187.634 571.511c-20.183 3.908-34.142-29.64-17.147-34.703l-0.004 0C198.683 528.43 201.955 568.757 187.634 571.511zM424.127 896.999c-2.314 49.143-56.083 66.334-88.871 44.077-36.342-24.611-48.942-86.199-70.481-136.302-13.565-31.551-33.627-60.431-48.585-83.644-24.295-37.735-34.023-80.217 3.512-122.219 28.797-32.19 62.025-52.974 98.364-56.484l-0.002 0c44.034-4.307 68.091 28.242 64.223 77.065-3.234 40.606-21.539 69.564-15.519 109.854C374.744 782.917 427.559 823.283 424.127 896.999zM345.585 372.702c-37.294-37.294-62.102-87.037-67.729-142.441l32.113 0 0 0.001-0.004 0.001c5.465 46.588 26.686 88.393 58.199 119.863 36.815 36.817 87.674 59.592 143.835 59.592 56.163 0 107.024-22.775 143.837-59.592 31.512-31.472 52.732-73.275 58.199-119.865l32.147 0.001c-5.624 55.363-30.473 105.146-67.771 142.44-42.602 42.6-101.436 68.928-166.415 68.928C447.023 441.629 388.19 415.302 345.585 372.702zM819.873 721.132c-14.957 23.213-35.021 52.093-48.586 83.645-21.538 50.102-34.141 111.688-70.481 136.301-32.789 22.257-86.555 5.063-88.87-44.077-3.434-73.716 49.384-114.082 57.359-167.65 6.021-40.288-12.283-69.247-15.52-109.854-3.869-48.823 20.188-81.372 64.226-77.065l-0.003 0c36.338 3.512 69.563 24.294 98.363 56.484C853.897 640.915 844.168 683.396 819.873 721.132zM848.428 571.511c-14.321-2.754-11.047-43.081 17.153-34.703l-0.003 0C882.572 541.871 868.612 575.419 848.428 571.511zM866.617 603.104c-12.246-2.355-9.452-36.861 14.68-29.683C895.814 577.732 883.849 606.415 866.617 603.104z" p-id="4797" fill="#707070"></path><path d="M511.998 254.195c17.629 0 31.913-14.281 31.913-31.91 0-5.825-1.554-11.33-4.307-15.997l44.192-76.585c4.427-7.618 1.837-17.353-5.783-21.739-7.619-4.428-17.353-1.836-21.735 5.784l-44.236 76.626L512 190.374l-0.002 0c-17.63 0-31.908 14.279-31.91 31.911C480.088 239.917 494.369 254.194 511.998 254.195z" p-id="4798" fill="#707070"></path></svg>