<?xml version="1.0" standalone="no"?><!DOCTYPE svg PUBLIC "-//W3C//DTD SVG 1.1//EN" "http://www.w3.org/Graphics/SVG/1.1/DTD/svg11.dtd"><svg t="1539653764136" class="icon" style="" viewBox="0 0 1024 1024" version="1.1" xmlns="http://www.w3.org/2000/svg" p-id="16637" xmlns:xlink="http://www.w3.org/1999/xlink" width="16" height="16"><defs><style type="text/css"></style></defs><path d="M481.882353 373.458824h60.235294v421.647058h-60.235294zM662.588235 373.458824h60.235294v421.647058h-60.235294zM301.176471 373.458824h60.235294v421.647058h-60.235294z" fill="#ffffff" p-id="16638"></path><path d="M993.882353 252.988235h-90.352941v-60.235294c0-36.141176-24.094118-60.235294-60.235294-60.235294h-180.705883v-30.117647c0-36.141176-24.094118-60.235294-60.235294-60.235294h-180.705882c-36.141176 0-60.235294 24.094118-60.235294 60.235294v30.117647h-180.705883c-36.141176 0-60.235294 24.094118-60.235294 60.235294v60.235294h-90.352941v60.235294h120.470588v542.117647c0 66.258824 54.211765 120.470588 120.470589 120.470589h481.882352c66.258824 0 120.470588-54.211765 120.470589-120.470589v-542.117647h120.470588v-60.235294z m-572.235294-144.564706h180.705882v30.117647h-180.705882v-30.117647z m-240.941177 84.329412h662.588236v60.235294h-662.588236v-60.235294z m632.470589 662.588235c0 30.117647-24.094118 60.235294-60.235295 60.235295h-481.882352c-30.117647 0-60.235294-24.094118-60.235295-60.235295v-542.117647h602.352942v542.117647z" fill="#ffffff" p-id="16639"></path></svg>