<?xml version="1.0" standalone="no"?><!DOCTYPE svg PUBLIC "-//W3C//DTD SVG 1.1//EN" "http://www.w3.org/Graphics/SVG/1.1/DTD/svg11.dtd"><svg t="1540297532676" class="icon" style="" viewBox="0 0 1027 1024" version="1.1" xmlns="http://www.w3.org/2000/svg" p-id="1079" xmlns:xlink="http://www.w3.org/1999/xlink" width="32.09375" height="32"><defs><style type="text/css"></style></defs><path d="M897.091612 173.051311l0 743.40944c0 21.185508-8.832156 40.523949-22.933315 54.602595l-0.067538 0.066515c-14.101159 14.078647-33.612539 22.896476-54.764278 22.896476L203.308429 994.026338c-21.152762 0-40.593534-8.81783-54.694693-22.896476l-0.067538-0.066515-0.069585 0.066515c-14.032598-14.077623-22.862707-33.484625-22.862707-54.670134L125.613906 234.6963c0-14.21577 11.568477-25.834388 25.875321-25.834388 14.306844 0 25.944905 11.618619 25.944905 25.834388l0 681.763428c0 6.900154 2.944052 13.394055 7.736195 18.108426l-0.069585 0.069585c4.724605 4.713348 11.226692 7.653307 18.20871 7.653307l616.018052 0c6.982018 0 13.485129-2.938935 18.20871-7.585769 4.724605-4.714372 7.736195-11.207249 7.736195-18.24555L845.272409 173.051311l-95.973842 0-475.960179 0L25.943882 173.051311c-14.305821 0-25.943882-11.549034-25.943882-25.831318s11.637038-25.833365 25.943882-25.833365l221.517139 0L247.461021 79.288834c0-21.255093 8.761548-40.662095 22.864754-54.740742C284.357349 10.536984 303.797097 1.722224 325.157591 1.722224l372.319727 0c21.3564 0 40.730657 8.747221 54.831816 22.757307l0.067538 0.069585L752.376672 24.479531c14.102183 14.078647 22.864754 33.487695 22.864754 54.810327l0 42.09677 221.517139 0c14.305821 0 25.875321 11.55108 25.875321 25.833365s-11.5695 25.831318-25.875321 25.831318L897.091612 173.051311zM675.845648 293.535383c0-14.283308 11.571546-25.901926 25.87839-25.901926 14.304797 0 25.874297 11.618619 25.874297 25.901926l0 537.839505c0 14.283308-11.570523 25.89988-25.874297 25.89988-14.306844 0-25.87839-11.616572-25.87839-25.89988L675.845648 293.535383zM485.406318 293.535383c0-14.283308 11.636015-25.901926 25.943882-25.901926 14.306844 0 25.875321 11.618619 25.875321 25.901926l0 537.839505c0 14.283308-11.568477 25.89988-25.875321 25.89988-14.307867 0-25.943882-11.616572-25.943882-25.89988L485.406318 293.535383zM295.037596 293.535383c0-14.283308 11.634991-25.901926 25.874297-25.901926 14.304797 0 25.942859 11.618619 25.942859 25.901926l0 537.839505c0 14.283308-11.638061 25.89988-25.942859 25.89988-14.239306 0-25.874297-11.616572-25.874297-25.89988L295.037596 293.535383zM299.28227 121.385605l424.13893 0L723.4212 79.288834c0-7.039323-2.942005-13.531178-7.66661-18.247596l0.068562 0c-4.721535-4.646833-11.158131-7.585769-18.345834-7.585769l-372.319727 0c-7.052626 0-13.487176 2.938935-18.20871 7.653307-4.724605 4.715395-7.66661 11.208273-7.66661 18.179035L299.28227 121.385605z" p-id="1080" fill="#2c2c2c"></path></svg>