<?xml version="1.0" standalone="no"?><!DOCTYPE svg PUBLIC "-//W3C//DTD SVG 1.1//EN" "http://www.w3.org/Graphics/SVG/1.1/DTD/svg11.dtd"><svg t="1538369159602" class="icon" style="" viewBox="0 0 1024 1024" version="1.1" xmlns="http://www.w3.org/2000/svg" p-id="7037" xmlns:xlink="http://www.w3.org/1999/xlink" width="32" height="32"><defs><style type="text/css"></style></defs><path d="M681.848755 627.383547a24.32483 24.32483 0 0 0-8.636378 8.462491l-140.03683 229.64649a24.846491 24.846491 0 0 1-42.351094 0L350.787623 635.846038a24.266868 24.266868 0 0 0-8.617057-8.462491C241.548075 569.112151 173.886792 460.645434 173.886792 336.432302 173.886792 151.165585 323.448755 1.27517 509.642868 0.019321 697.459925-1.255849 850.113208 149.851774 850.113208 336.432302c0 124.213132-67.641962 232.660528-168.264453 290.951245zM512 187.817057c-82.480302 0-149.368755 66.540679-149.368755 148.615245s66.888453 148.615245 149.368755 148.615245c82.499623 0 149.368755-66.540679 149.368755-148.615245S594.499623 187.817057 512 187.817057zM810.718189 1024H213.281811v-101.260075h597.436378V1024z" p-id="7038" fill="#707070"></path></svg>