<?xml version="1.0" standalone="no"?><!DOCTYPE svg PUBLIC "-//W3C//DTD SVG 1.1//EN" "http://www.w3.org/Graphics/SVG/1.1/DTD/svg11.dtd"><svg t="1535721083241" class="icon" style="" viewBox="0 0 1024 1024" version="1.1" xmlns="http://www.w3.org/2000/svg" p-id="21757" xmlns:xlink="http://www.w3.org/1999/xlink" width="32" height="32"><defs><style type="text/css"></style></defs><path d="M959.021176 879.344941h-33.897411c-8.357647-58.684235-58.503529-104.056471-119.582118-104.05647s-111.224471 45.372235-119.582118 104.05647h-172.122353c-8.357647-58.684235-58.503529-104.056471-119.582117-104.05647s-111.224471 45.372235-119.582118 104.05647h-68.246588a34.138353 34.138353 0 0 1-34.078118-34.078117V334.592a34.183529 34.183529 0 0 1 34.078118-34.078118h479.623529a34.138353 34.138353 0 0 1 34.078118 34.078118v102.128941h119.401412c25.072941 0 35.629176 15.344941 51.154823 34.078118l76.227765 135.559529s26.081882 36.457412 26.081882 68.788706v170.285177a33.882353 33.882353 0 0 1-33.972706 33.91247z m-36.276705-233.200941l-71.830589-133.270588s-7.619765-8.086588-13.131294-8.086588H754.296471v170.285176h181.669647c0.015059-8.538353-6.881882-19.561412-13.221647-28.928zM394.164706 811.279059c47.119059 0 85.323294 38.113882 85.323294 85.142588s-38.204235 85.142588-85.323294 85.142588-85.323294-38.113882-85.323294-85.142588 38.219294-85.142588 85.323294-85.142588z m411.301647 0c47.119059 0 85.323294 38.113882 85.323294 85.142588s-38.204235 85.142588-85.323294 85.142588a85.232941 85.232941 0 0 1-85.323294-85.142588 85.293176 85.293176 0 0 1 85.323294-85.142588zM340.525176 148.961882h376.952471v25.268706H340.525176zM18.552471 237.040941h505.780705v25.268706H18.552471zM647.815529 199.152941h281.690353v25.268706H647.815529z" p-id="21758" fill="#707070"></path><path d="M92.867765 714.375529h79.495529v25.268706H92.867765z" p-id="21759" fill="#707070"></path></svg>