<?xml version="1.0" standalone="no"?><!DOCTYPE svg PUBLIC "-//W3C//DTD SVG 1.1//EN" "http://www.w3.org/Graphics/SVG/1.1/DTD/svg11.dtd"><svg t="1535714572905" class="icon" style="" viewBox="0 0 1024 1024" version="1.1" xmlns="http://www.w3.org/2000/svg" p-id="12297" xmlns:xlink="http://www.w3.org/1999/xlink" width="32" height="32"><defs><style type="text/css"></style></defs><path d="M506.8 326c35.4 0 64.9-13.8 82.6-41.3 17.7-27.6 17.7-62 0-89.6L506.8 64.2l-76.7 130.9c-17.7 27.6-17.7 62 0 89.6 11.8 27.6 41.3 41.3 76.7 41.3z m221.7 382l-49.6-46.4-49.5 46.4c-61.9 53-173.5 53-235.4 0l-49.6-46.4-49.6 46.4c-31 26.5-74.3 39.8-117.7 39.8-37.2 0-68.1-6.6-92.9-26.5v192.3C71.8 940.1 96.6 960 121.4 960h768.2c24.8 0 49.6-19.9 49.6-39.8V727.8c-24.8 19.9-62 26.5-92.9 26.5-43.5-6.6-86.8-19.8-117.8-46.3z m61.2-270.6H565.9v-56c0-10.3-8.3-18.6-18.6-18.7l-73.4-0.1c-10.2 0-18.5 8.1-18.7 18.3l-1.2 56.5H192.8c-78.5-6.3-111.9 48.6-111.9 112v72.8c0 44.3 42.3 76 90.6 76 24.2 0 48.3-6.3 66.5-25.3l102.7-88.6 102.7 88.6c36.3 31.7 96.7 31.7 132.9 0L679 584.3l102.7 88.6c18.1 12.7 42.3 25.3 66.5 25.3 48.3 0 90.6-38 90.6-76v-72.8c-12.1-63.3-39.4-112-111.9-112h-37.2z m37.3 0" fill="#707070" p-id="12298"></path></svg>