<?xml version="1.0" standalone="no"?><!DOCTYPE svg PUBLIC "-//W3C//DTD SVG 1.1//EN" "http://www.w3.org/Graphics/SVG/1.1/DTD/svg11.dtd"><svg t="1535623921696" class="icon" style="" viewBox="0 0 1024 1024" version="1.1" xmlns="http://www.w3.org/2000/svg" p-id="6451" xmlns:xlink="http://www.w3.org/1999/xlink" width="32" height="32"><defs><style type="text/css"></style></defs><path d="M512 1004.8C236.8 1004.8 19.2 780.8 19.2 512S236.8 19.2 512 19.2c275.2 0 492.8 224 492.8 492.8s-217.6 492.8-492.8 492.8zM512 76.8c-236.8 0-435.2 192-435.2 435.2s192 435.2 435.2 435.2 435.2-192 435.2-435.2S748.8 76.8 512 76.8z" fill="#333333" p-id="6452"></path><path d="M672 281.6c-51.2 0-96 19.2-121.6 57.6-25.6 25.6-38.4 64-38.4 102.4 0-38.4-12.8-76.8-38.4-102.4-32-38.4-70.4-57.6-121.6-57.6C262.4 281.6 192 352 192 441.6c0 51.2 25.6 96 57.6 121.6L512 825.6l262.4-262.4c32-25.6 57.6-70.4 57.6-121.6 0-89.6-70.4-160-160-160z" fill="#666666" p-id="6453"></path><path d="M512 870.4L230.4 582.4c-44.8-32-64-89.6-64-147.2 0-102.4 83.2-192 192-192 57.6 0 108.8 25.6 147.2 64-6.4 19.2 0 25.6 6.4 32 6.4-6.4 12.8-12.8 12.8-19.2 38.4-44.8 89.6-64 147.2-64 102.4 0 192 83.2 192 192 0 57.6-25.6 108.8-70.4 147.2L512 870.4zM352 307.2c-70.4 0-128 57.6-128 128 0 38.4 19.2 76.8 44.8 102.4L512 787.2l243.2-243.2c32-25.6 51.2-64 51.2-102.4 0-70.4-57.6-128-128-128-38.4 0-76.8 19.2-102.4 44.8-25.6 19.2-32 51.2-32 83.2h-64c0-32-12.8-57.6-32-83.2-19.2-32-57.6-51.2-96-51.2z" fill="#333333" p-id="6454"></path></svg>