<?xml version="1.0" standalone="no"?><!DOCTYPE svg PUBLIC "-//W3C//DTD SVG 1.1//EN" "http://www.w3.org/Graphics/SVG/1.1/DTD/svg11.dtd"><svg t="1538369133321" class="icon" style="" viewBox="0 0 1024 1024" version="1.1" xmlns="http://www.w3.org/2000/svg" p-id="6246" xmlns:xlink="http://www.w3.org/1999/xlink" width="32" height="32"><defs><style type="text/css"></style></defs><path d="M511.62854 507.134179m-128.807645 0a128.807644 128.807644 0 1 0 257.615289 0 128.807644 128.807644 0 1 0-257.615289 0Z" fill="#707070" p-id="6247"></path><path d="M511.62854 0c-282.553261 0-511.60705 229.054813-511.607051 511.60705s229.054813 511.60705 511.607051 511.607051 511.60705-229.05379 511.60705-511.607051S794.181801 0 511.62854 0z m0 787.450493c-212.467019 0-281.517675 7.906064-281.517675-103.577007 0-199.895703 174.307931-353.224834 281.517675-353.224834 140.758838 0 292.140617 225.745441 292.140617 350.569354 0 124.823913-79.674621 106.232486-292.140617 106.232487z m249.647827-326.410118c-37.181831-50.903344-132.791375-154.48035-249.647827-154.480351v0.186242c-116.856451 0-212.465996 103.577007-249.647827 154.481374-37.181831 50.903344-127.479393 23.459295-84.986603-77.462233 92.954065-156.693762 334.63443-148.7263 334.63443-148.7263v-0.186241s241.680365-7.967462 334.63443 148.726299c42.49279 100.920504-47.804772 128.364553-84.986603 77.46121z" fill="#707070" p-id="6248"></path></svg>