<?xml version="1.0" standalone="no"?><!DOCTYPE svg PUBLIC "-//W3C//DTD SVG 1.1//EN" "http://www.w3.org/Graphics/SVG/1.1/DTD/svg11.dtd"><svg t="1535714207995" class="icon" style="" viewBox="0 0 1024 1024" version="1.1" xmlns="http://www.w3.org/2000/svg" p-id="7826" xmlns:xlink="http://www.w3.org/1999/xlink" width="32" height="32"><defs><style type="text/css"></style></defs><path d="M937.53279 1024H86.02829C27.554413 1024 0 995.518979 0 934.94804V89.05196C0 28.432252 27.554413 0 86.02829 0h851.5045c58.473877 0 86.02829 28.481021 86.02829 89.100729v845.89608c0 60.52217-27.554413 89.003191-86.02829 89.003191z m-427.703005-891.885126c-53.694528 0-97.196361 45.306282-97.196361 101.14664 0 55.889127 43.550602 101.195409 97.196361 101.195408s97.196361-45.306282 97.196362-101.195408c0-55.840358-43.550602-101.14664-97.196362-101.14664zM646.675239 371.618803a32.4313 32.4313 0 0 0-31.748535-33.016526H412.584655a32.4313 32.4313 0 0 0-31.748536 33.016526v185.809401c0 18.239558 10.241463 28.919941 27.749488 28.919941h23.79921v165.1314c0 18.239558 10.241463 28.871172 27.749488 28.871172h107.145211c17.508025 0 27.749488-10.631614 27.749488-28.871172v-165.1314h23.79921c17.508025 0 27.749488-10.680383 27.749488-28.919941V371.618803z m11.899605 305.536981s-29.992856-7.461637-31.748535 22.775063c-1.121684 19.702624 27.749488 26.725342 27.749488 26.725342 59.790637 13.801591 111.09549 36.430347 111.095489 51.646235 0 35.357432-113.68024 68.130114-253.939515 68.130114s-253.939515-32.772682-253.939515-68.130114c0-20.775539 41.989999-41.06339 111.09549-51.646235 0 0 30.431776-1.950755 27.798257-28.578559-2.779826-28.188408-31.748536-20.970615-31.748536-20.970615-90.417488 15.947421-154.30471 50.865933-154.74363 99.098348-0.633995 73.299614 134.992237 115.630995 301.537934 115.630995s302.171929-43.64814 301.537934-115.630995c-0.390151-48.183645-66.081821-82.175549-154.694861-99.049579z" p-id="7827" fill="#707070"></path></svg>